<svg width="100" height="32" xmlns="http://www.w3.org/2000/svg"><rect opacity=".2" x=".95" y=".9" width="98" height="30" rx="15" stroke="#AAA" stroke-width="2" style="fill:none"/><path d="m32.929 20.9.934-2.695h3.977l.93 2.695h1.631l-3.664-10.182h-1.775L31.298 20.9h1.631zm1.382-3.987 1.501-4.345h.08l1.501 4.345h-3.082zm7.441 3.987h1.486v-3.053h.965l2.302 3.053h1.844l-2.993-3.923 2.958-3.713h-1.839l-2.521 3.201h-.716v-3.201h-1.486V20.9zm7.752 0h1.486v-3.053h.965l2.302 3.053h1.844l-2.993-3.923 2.958-3.713h-1.839l-2.521 3.201h-.716v-3.201h-1.486V20.9zm9.974.169c1.263 0 1.974-.641 2.257-1.213h.06V20.9h1.452v-5.071c0-2.222-1.75-2.665-2.964-2.665-1.382 0-2.654.557-3.152 1.949l1.398.318c.218-.542.775-1.064 1.774-1.064.96 0 1.452.503 1.452 1.368v.034c0 .542-.557.532-1.929.691-1.447.169-2.928.547-2.928 2.282 0 1.502 1.128 2.327 2.58 2.327zm.323-1.193c-.84 0-1.446-.378-1.446-1.114 0-.795.705-1.079 1.566-1.193.482-.065 1.625-.194 1.839-.408v.985c0 .905-.721 1.73-1.959 1.73zm6.092 3.868c1.228 0 2.008-.642 2.446-1.825l3.157-8.64-1.606-.015-1.934 5.926h-.08l-1.934-5.926h-1.591l2.795 7.735-.184.508c-.378.989-.91 1.078-1.726.855l-.358 1.218c.179.084.567.164 1.015.164zm8.46-10.48h-1.457V20.9h1.457v-3.172h3.306V20.9h1.452v-7.636h-1.452v3.177h-3.306v-3.177zm5.799 1.282h2.501V20.9h1.452v-6.354h2.491v-1.282h-6.444v1.282z"/><path fill-rule="evenodd" clip-rule="evenodd" d="M21.95 12.9a4 4 0 1 1-8 0 4 4 0 0 1 8 0zm-6 5a4 4 0 0 0-4 4v1h2v-1a2 2 0 0 1 2-2h4a2 2 0 0 1 2 2v1h2v-1a4 4 0 0 0-4-4h-4z"/></svg>